{"accessors":[{"bufferView":0,"byteOffset":0,"componentType":5126,"count":70357,"max":[0.09268176833895305,0.09980000000000002,0.0908],"min":[-0.09498036348239417,-8.517999654639846e-18,-0.0908],"type":"VEC3"},{"bufferView":0,"byteOffset":844284,"componentType":5126,"count":5345,"max":[0.06605,0.11290000000000003,0.1092],"min":[-0.0727,-0.005000000000000014,-0.06605000000000001],"type":"VEC3"},{"bufferView":0,"byteOffset":908424,"componentType":5126,"count":4996,"max":[0.0471,0.07020000000000001,0.047099999999999999],"min":[-0.05600000000000001,-0.0505000000000006,-0.265],"type":"VEC3"},{"bufferView":0,"byteOffset":968376,"componentType":5126,"count":1993,"max":[0.035999999999999868,0.031,0.03599218325757994],"min":[-0.065,-0.031000000000000004,-0.06775],"type":"VEC3"},{"bufferView":0,"byteOffset":992292,"componentType":5126,"count":6091,"max":[0.03200000000000001,0.195,0.028000000000000057],"min":[-0.05999999999999999,-0.01800000000000001,-0.028],"type":"VEC3"},{"bufferView":0,"byteOffset":1065384,"componentType":5126,"count":2869,"max":[0.01969999999999999,0.023,0.018000000000000003],"min":[-0.049,-0.029500000000000007,-0.01825],"type":"VEC3"},{"bufferView":0,"byteOffset":1099812,"componentType":5126,"count":2302,"max":[0.010499999999999998,0.0285,0.0105],"min":[-0.010500000000000003,-0.006500000000000001,-0.0105],"type":"VEC3"},{"bufferView":1,"byteOffset":0,"componentType":5126,"count":70357,"type":"VEC3"},{"bufferView":1,"byteOffset":844284,"componentType":5126,"count":5345,"type":"VEC3"},{"bufferView":1,"byteOffset":908424,"componentType":5126,"count":4996,"type":"VEC3"},{"bufferView":1,"byteOffset":968376,"componentType":5126,"count":1993,"type":"VEC3"},{"bufferView":1,"byteOffset":992292,"componentType":5126,"count":6091,"type":"VEC3"},{"bufferView":1,"byteOffset":1065384,"componentType":5126,"count":2869,"type":"VEC3"},{"bufferView":1,"byteOffset":1099812,"componentType":5126,"count":2302,"type":"VEC3"},{"bufferView":2,"byteOffset":0,"componentType":5125,"count":294558,"type":"SCALAR"},{"bufferView":2,"byteOffset":1178232,"componentType":5123,"count":16500,"type":"SCALAR"},{"bufferView":2,"byteOffset":1211232,"componentType":5123,"count":18096,"type":"SCALAR"},{"bufferView":2,"byteOffset":1247424,"componentType":5123,"count":6336,"type":"SCALAR"},{"bufferView":2,"byteOffset":1260096,"componentType":5123,"count":21534,"type":"SCALAR"},{"bufferView":2,"byteOffset":1303164,"componentType":5123,"count":9468,"type":"SCALAR"},{"bufferView":2,"byteOffset":1322100,"componentType":5123,"count":7218,"type":"SCALAR"}],"asset":{"generator":"Open CASCADE Technology 7.6 [dev.opencascade.org]","version":"2.0","extras":{"Author":"","Originating system":"SolidWorks 2020","Organization":"","Comments":"STEP AP203"}},"bufferViews":[{"buffer":0,"byteLength":1127436,"byteOffset":0,"byteStride":12,"target":34962},{"buffer":0,"byteLength":1127436,"byteOffset":1127436,"byteStride":12,"target":34962},{"buffer":0,"byteLength":1336536,"byteOffset":2254872,"target":34963}],"buffers":[{"byteLength":3591408,"uri":"NED2_STEP.bin"}],"meshes":[{"name":"1- BASE - NED 2 VL (URDF)","primitives":[{"attributes":{"NORMAL":7,"POSITION":0},"indices":14,"mode":4}]},{"name":"2- SHOULDER - NED 2 VL (URDF)","primitives":[{"attributes":{"NORMAL":8,"POSITION":1},"indices":15,"mode":4}]},{"name":"3- ARM - NED 2 VL (URDF)","primitives":[{"attributes":{"NORMAL":9,"POSITION":2},"indices":16,"mode":4}]},{"name":"4- ELBOW - NED 2 VL (URDF)","primitives":[{"attributes":{"NORMAL":10,"POSITION":3},"indices":17,"mode":4}]},{"name":"5- FOREARM - NED 2 VL (URDF)","primitives":[{"attributes":{"NORMAL":11,"POSITION":4},"indices":18,"mode":4}]},{"name":"6- WRIST - NED 2 VL (URDF)","primitives":[{"attributes":{"NORMAL":12,"POSITION":5},"indices":19,"mode":4}]},{"name":"7- HAND - NED 2 VL (URDF)","primitives":[{"attributes":{"NORMAL":13,"POSITION":6},"indices":20,"mode":4}]}],"nodes":[{"children":[1,2,3,4,5,6,7],"name":"NED 2 - VL (STEP)"},{"mesh":0,"name":"NAUO1"},{"rotation":[-1.0789028806984663e-16,-0.7071067811865476,-9.343113754067951e-17,0.7071067811865475],"translation":[-5.747204201636416e-17,0.10129999999999998,5.4011795985018239e-18],"mesh":1,"name":"NAUO2"},{"rotation":[-1.905839311091181e-16,-0.7071067811865475,0.7071067811865475,-1.5175164240540126e-17],"translation":[-4.1633363423443379e-17,0.16630000000000004,4.594987631238331e-19],"mesh":2,"name":"NAUO3"},{"rotation":[-1.600157597193532e-17,-0.7071067811865475,0.7071067811865475,-1.3375851037321843e-16],"translation":[0.011999999999999886,0.38729999999999989,-2.1597920624287543e-17],"mesh":3,"name":"NAUO4"},{"rotation":[0.5000000000000001,0.4999999999999999,-0.4999999999999999,0.5000000000000001],"translation":[0.07699999999999985,0.4197999999999999,-1.7925688279719388e-17],"mesh":4,"name":"NAUO5"},{"rotation":[0.7071067811865475,9.813077866773336e-18,9.81307786677385e-18,0.7071067811865475],"translation":[0.2469999999999999,0.4197999999999999,-4.7958693205079376e-17],"mesh":5,"name":"NAUO6"},{"rotation":[0.5000000000000001,0.49999999999999997,-0.5,0.5000000000000001],"translation":[0.2666999999999999,0.42904999999999968,-1.387778780781447e-17],"mesh":6,"name":"NAUO7"}],"scene":0,"scenes":[{"nodes":[0]}]}