{"asset":{"version":"2.0","generator":"Unity 2022.3.21f1 glTFast 6.2.0"},"nodes":[{"name":"SmallerBase","mesh":0},{"name":"Smaller base","children":[0],"rotation":[0,2.98025178E-08,-5.887641E-16,1],"scale":[30,30,30]},{"name":"Foot04","mesh":1},{"name":"Foot4","children":[2],"rotation":[0,2.98025178E-08,-5.887641E-16,1],"scale":[30,30,30]},{"name":"Foot03","mesh":2},{"name":"Foot3","children":[4],"rotation":[0,2.98025178E-08,-5.887641E-16,1],"scale":[30,30,30]},{"name":"Foot02","mesh":3},{"name":"Foot2","children":[6],"rotation":[0,2.98025178E-08,-5.887641E-16,1],"scale":[30,30,30]},{"name":"Foot01","mesh":4},{"name":"Foot1","children":[8],"rotation":[0,2.98025178E-08,-5.887641E-16,1],"scale":[30,30,30]},{"name":"Base","mesh":5},{"name":"Base","children":[10],"rotation":[0,2.98025178E-08,-5.887641E-16,1],"scale":[30,30,30]},{"name":"[Interactable] 001","mesh":6},{"name":"001","children":[12],"translation":[0,0.2464,0],"rotation":[0,0,1.4210852E-13,1],"scale":[30,30,30]},{"name":"Structure001","mesh":7},{"name":"Structure1","children":[14],"translation":[-0.008999983,0.214,0],"rotation":[0,1.49011576E-08,-2.84217027E-14,1],"scale":[30,30,30]},{"name":"Component 2","mesh":8},{"name":"unnamed","children":[16],"translation":[-0.0249000825,0.8472001,-0.0310000516],"rotation":[-0.6373555,-0.3062318,0.3062318,0.6373555],"scale":[30,30,30.0000134]},{"name":"[Interactable] 002","mesh":9,"translation":[-0.01800005,0.838000059,-0.0930001],"rotation":[0.7071068,-2.03760333E-08,-8.743889E-09,0.7071068],"scale":[30,30.0000114,30.0000134]},{"name":"unnamed","translation":[-0.01800005,0.838000059,-0.0930001],"rotation":[0.7071068,-2.03760333E-08,-8.743889E-09,0.7071068],"scale":[30,30.0000114,30.0000134]},{"name":"Structure2","mesh":10},{"name":"Structure2","children":[20],"translation":[0.76729995,1.818,0.133000031],"rotation":[-2.87863917E-13,-1,-8.214583E-09,4.47034658E-08],"scale":[30,30,30]},{"name":"DiskUnderCube","mesh":11},{"name":"DiskUnderCube","children":[22],"translation":[0.773000062,1.818,0.111999989],"rotation":[-2.87863917E-13,-1,-8.214583E-09,4.47034658E-08],"scale":[30,30,30]},{"name":"Cube","mesh":12,"rotation":[1.77635684E-15,3.46347662E-09,-8.535339E-17,1]},{"name":"Cube","children":[24],"translation":[0.766,1.818,0.134000048],"rotation":[-2.87863917E-13,-1,-8.214583E-09,4.47034658E-08],"scale":[30,30,30]},{"name":"Structure4","mesh":13,"rotation":[0,-3.944304E-31,2.220446E-16,1]},{"name":"Structure4","children":[26],"translation":[-0.126000062,1.825,0.13199991],"rotation":[-4.5030635E-13,1.49011576E-08,-1.1327064E-13,1],"scale":[30,30,30]},{"name":"Structure3","mesh":14,"rotation":[0,-3.944304E-31,2.220446E-16,1]},{"name":"Structure3","children":[28],"translation":[-0.13289997,1.82,0.133999854],"rotation":[-4.5030635E-13,1.49011576E-08,-1.1327064E-13,1],"scale":[30,30,30]},{"name":"Collisions","translation":[3.4406475E-17,-2.44815074E-16,-1.49011612E-08],"rotation":[-8.881783E-16,0,-2.54443835E-23,1]},{"name":"Structure6","mesh":15},{"name":"Structure6","children":[31],"translation":[-0.472000122,1.71299994,0.129000053],"rotation":[-0.7071068,-1.719467E-08,-1.97104431E-08,0.7071068],"scale":[30,30,30.0000114]},{"name":"Structure5","mesh":16},{"name":"Structure5","children":[33],"translation":[-0.472000062,1.7025,0.129000112],"rotation":[-0.7071068,-1.719467E-08,-1.97104431E-08,0.7071068],"scale":[30,30,30.0000114]},{"name":"Inter","mesh":17},{"name":"Inter","children":[35],"translation":[-0.463000059,1.6954,0.133],"rotation":[-0.5,-0.5,-0.49999994,0.5],"scale":[30,30,30.0000114]},{"name":"Clamp2","mesh":18,"rotation":[0,-3.94430359E-31,2.22044578E-16,1]},{"name":"Clamp2","children":[37],"translation":[-0.4810001,1.55700016,-0.3160001],"rotation":[2.17872875E-09,-0.9848078,-0.173648253,1.49984576E-08],"scale":[30,30,30]},{"name":"Clamp1","mesh":18,"rotation":[0,-3.94430359E-31,2.22044578E-16,1]},{"name":"Clamp1","children":[39],"translation":[-0.4811,1.55700016,0.569999754],"rotation":[-0.173648238,1.48038648E-08,-4.283538E-09,0.9848077],"scale":[30,30,30]},{"name":"ClampHolder","mesh":19,"rotation":[0,0,-0.7071068,0.7071068]},{"name":"ClampHolder","children":[41],"translation":[-0.481000036,1.56,0.126999989],"rotation":[-4.54747242E-13,0,5.65932121E-14,1],"scale":[30,30,30]},{"name":"link","children":[38,40,42],"translation":[1.37090456E-06,-4.172325E-06,-5.471549E-08],"rotation":[-4.250521E-09,-2.980231E-08,-1.023728E-07,1]},{"name":"Component-6-Jaw-5:1","children":[32,34,36,43],"translation":[3.57624742E-07,-3.81469772E-06,1.12922294E-07],"rotation":[3.20196669E-08,-1.49011665E-08,-1.11959409E-07,1]},{"name":"Component-5-Jaw-4:1","children":[27,29,30,44],"translation":[-3.27825546E-06,-1.19205239E-07,4.742761E-07],"rotation":[-6.126671E-08,5.960468E-08,-2.48483019E-07,1]},{"name":"Component-4-Jaw-3:1","children":[21,23,25,45],"translation":[8.642713E-07,6.794929E-06,1.26357236E-06],"rotation":[1.31230875E-08,-2.980233E-08,3.382698E-07,1]},{"name":"Component-3-Jaw-2:1","children":[17,18,19,46],"translation":[-0.438002318,-0.113999352,-1.09523535E-06],"rotation":[-3.03375565E-08,1.49011594E-08,2.97249727E-07,1]},{"name":"Joint1","children":[13,15,47],"translation":[-3.880062E-06,1.07586384E-05,-7.336202E-07],"rotation":[3.999399E-06,-0.128625333,-2.15045225E-06,0.9916933]},{"name":"Component-1-Base:1","children":[1,3,5,7,9,11,48],"translation":[-5.4303664E-06,-3.54647636E-06,3.07621121E-06],"rotation":[3.97139175E-08,5.9604524E-08,1.52424384E-08,1]}],"buffers":[{"uri":"robotic arm-v6.bin","byteLength":2279136}],"bufferViews":[{"buffer":0,"byteLength":6816},{"buffer":0,"byteLength":1440,"byteOffset":6816},{"buffer":0,"byteLength":1440,"byteOffset":8256},{"buffer":0,"byteLength":1440,"byteOffset":9696},{"buffer":0,"byteLength":1440,"byteOffset":11136},{"buffer":0,"byteLength":6960,"byteOffset":12576},{"buffer":0,"byteLength":9840,"byteOffset":19536},{"buffer":0,"byteLength":94608,"byteOffset":29376},{"buffer":0,"byteLength":44040,"byteOffset":123984},{"buffer":0,"byteLength":4560,"byteOffset":168024},{"buffer":0,"byteLength":70704,"byteOffset":172584},{"buffer":0,"byteLength":8160,"byteOffset":243288},{"buffer":0,"byteLength":2448,"byteOffset":251448},{"buffer":0,"byteLength":114912,"byteOffset":253896},{"buffer":0,"byteLength":4560,"byteOffset":368808},{"buffer":0,"byteLength":100608,"byteOffset":373368},{"buffer":0,"byteLength":13824,"byteOffset":473976},{"buffer":0,"byteLength":4584,"byteOffset":487800},{"buffer":0,"byteLength":11376,"byteOffset":492384},{"buffer":0,"byteLength":17568,"byteOffset":503760},{"buffer":0,"byteLength":19280,"byteOffset":521328,"byteStride":40},{"buffer":0,"byteLength":3856,"byteOffset":540608,"byteStride":8},{"buffer":0,"byteLength":5360,"byteOffset":544464,"byteStride":40},{"buffer":0,"byteLength":1072,"byteOffset":549824,"byteStride":8},{"buffer":0,"byteLength":5360,"byteOffset":550896,"byteStride":40},{"buffer":0,"byteLength":1072,"byteOffset":556256,"byteStride":8},{"buffer":0,"byteLength":5360,"byteOffset":557328,"byteStride":40},{"buffer":0,"byteLength":1072,"byteOffset":562688,"byteStride":8},{"buffer":0,"byteLength":5360,"byteOffset":563760,"byteStride":40},{"buffer":0,"byteLength":1072,"byteOffset":569120,"byteStride":8},{"buffer":0,"byteLength":19720,"byteOffset":570192,"byteStride":40},{"buffer":0,"byteLength":3944,"byteOffset":589912,"byteStride":8},{"buffer":0,"byteLength":27000,"byteOffset":593856,"byteStride":40},{"buffer":0,"byteLength":5400,"byteOffset":620856,"byteStride":8},{"buffer":0,"byteLength":275440,"byteOffset":626256,"byteStride":40},{"buffer":0,"byteLength":55088,"byteOffset":901696,"byteStride":8},{"buffer":0,"byteLength":102760,"byteOffset":956784,"byteStride":40},{"buffer":0,"byteLength":20552,"byteOffset":1059544,"byteStride":8},{"buffer":0,"byteLength":12880,"byteOffset":1080096,"byteStride":40},{"buffer":0,"byteLength":2576,"byteOffset":1092976,"byteStride":8},{"buffer":0,"byteLength":200800,"byteOffset":1095552,"byteStride":40},{"buffer":0,"byteLength":40160,"byteOffset":1296352,"byteStride":8},{"buffer":0,"byteLength":23520,"byteOffset":1336512,"byteStride":40},{"buffer":0,"byteLength":4704,"byteOffset":1360032,"byteStride":8},{"buffer":0,"byteLength":7480,"byteOffset":1364736,"byteStride":40},{"buffer":0,"byteLength":1496,"byteOffset":1372216,"byteStride":8},{"buffer":0,"byteLength":332560,"byteOffset":1373712,"byteStride":40},{"buffer":0,"byteLength":66512,"byteOffset":1706272,"byteStride":8},{"buffer":0,"byteLength":12880,"byteOffset":1772784,"byteStride":40},{"buffer":0,"byteLength":2576,"byteOffset":1785664,"byteStride":8},{"buffer":0,"byteLength":281000,"byteOffset":1788240,"byteStride":40},{"buffer":0,"byteLength":56200,"byteOffset":2069240,"byteStride":8},{"buffer":0,"byteLength":28600,"byteOffset":2125440,"byteStride":40},{"buffer":0,"byteLength":5720,"byteOffset":2154040,"byteStride":8},{"buffer":0,"byteLength":13480,"byteOffset":2159760,"byteStride":40},{"buffer":0,"byteLength":2696,"byteOffset":2173240,"byteStride":8},{"buffer":0,"byteLength":33920,"byteOffset":2175936,"byteStride":40},{"buffer":0,"byteLength":6784,"byteOffset":2209856,"byteStride":8},{"buffer":0,"byteLength":52080,"byteOffset":2216640,"byteStride":40},{"buffer":0,"byteLength":10416,"byteOffset":2268720,"byteStride":8}],"accessors":[{"bufferView":20,"componentType":5126,"count":482,"type":"VEC3","max":[0.0110000009,0.010400001,0.0110000009],"min":[-0.0110000009,0.0075000003,-0.0110000009]},{"bufferView":20,"componentType":5126,"count":482,"type":"VEC3","byteOffset":12},{"bufferView":20,"componentType":5126,"count":482,"type":"VEC4","byteOffset":24},{"bufferView":21,"componentType":5126,"count":482,"type":"VEC2"},{"bufferView":0,"componentType":5125,"count":1704,"type":"SCALAR"},{"bufferView":22,"componentType":5126,"count":134,"type":"VEC3","max":[0.00375000015,0.0065,-0.0145236887],"min":[-0.00375000015,0,-0.0195236877]},{"bufferView":22,"componentType":5126,"count":134,"type":"VEC3","byteOffset":12},{"bufferView":22,"componentType":5126,"count":134,"type":"VEC4","byteOffset":24},{"bufferView":23,"componentType":5126,"count":134,"type":"VEC2"},{"bufferView":1,"componentType":5125,"count":360,"type":"SCALAR"},{"bufferView":24,"componentType":5126,"count":134,"type":"VEC3","max":[0.0195236877,0.0065,0.00375000015],"min":[0.0145236887,0,-0.00375000015]},{"bufferView":24,"componentType":5126,"count":134,"type":"VEC3","byteOffset":12},{"bufferView":24,"componentType":5126,"count":134,"type":"VEC4","byteOffset":24},{"bufferView":25,"componentType":5126,"count":134,"type":"VEC2"},{"bufferView":2,"componentType":5125,"count":360,"type":"SCALAR"},{"bufferView":26,"componentType":5126,"count":134,"type":"VEC3","max":[0.00375000015,0.0065,0.0195236877],"min":[-0.00375000015,0,0.0145236887]},{"bufferView":26,"componentType":5126,"count":134,"type":"VEC3","byteOffset":12},{"bufferView":26,"componentType":5126,"count":134,"type":"VEC4","byteOffset":24},{"bufferView":27,"componentType":5126,"count":134,"type":"VEC2"},{"bufferView":3,"componentType":5125,"count":360,"type":"SCALAR"},{"bufferView":28,"componentType":5126,"count":134,"type":"VEC3","max":[-0.0145236887,0.0065,0.00375000015],"min":[-0.0195236877,0,-0.00375000015]},{"bufferView":28,"componentType":5126,"count":134,"type":"VEC3","byteOffset":12},{"bufferView":28,"componentType":5126,"count":134,"type":"VEC4","byteOffset":24},{"bufferView":29,"componentType":5126,"count":134,"type":"VEC2"},{"bufferView":4,"componentType":5125,"count":360,"type":"SCALAR"},{"bufferView":30,"componentType":5126,"count":493,"type":"VEC3","max":[0.0150000006,0.0075000003,0.0150000006],"min":[-0.0150000006,0,-0.0150000006]},{"bufferView":30,"componentType":5126,"count":493,"type":"VEC3","byteOffset":12},{"bufferView":30,"componentType":5126,"count":493,"type":"VEC4","byteOffset":24},{"bufferView":31,"componentType":5126,"count":493,"type":"VEC2"},{"bufferView":5,"componentType":5125,"count":1740,"type":"SCALAR"},{"bufferView":32,"componentType":5126,"count":675,"type":"VEC3","max":[0.009000001,0.00370000023,0.009000001],"min":[-0.009000001,0,-0.009000001]},{"bufferView":32,"componentType":5126,"count":675,"type":"VEC3","byteOffset":12},{"bufferView":32,"componentType":5126,"count":675,"type":"VEC4","byteOffset":24},{"bufferView":33,"componentType":5126,"count":675,"type":"VEC2"},{"bufferView":6,"componentType":5125,"count":2460,"type":"SCALAR"},{"bufferView":34,"componentType":5126,"count":6886,"type":"VEC3","max":[0.007750001,0.0228498112,0.00565],"min":[-0.0218449738,0.00370000117,-0.00199999986]},{"bufferView":34,"componentType":5126,"count":6886,"type":"VEC3","byteOffset":12},{"bufferView":34,"componentType":5126,"count":6886,"type":"VEC4","byteOffset":24},{"bufferView":35,"componentType":5126,"count":6886,"type":"VEC2"},{"bufferView":7,"componentType":5125,"count":23652,"type":"SCALAR"},{"bufferView":36,"componentType":5126,"count":2569,"type":"VEC3","max":[0.0385000035,0.0047,0.0045],"min":[-0.00450000167,-0.00199999986,-0.006244488]},{"bufferView":36,"componentType":5126,"count":2569,"type":"VEC3","byteOffset":12},{"bufferView":36,"componentType":5126,"count":2569,"type":"VEC4","byteOffset":24},{"bufferView":37,"componentType":5126,"count":2569,"type":"VEC2"},{"bufferView":8,"componentType":5125,"count":11010,"type":"SCALAR"},{"bufferView":38,"componentType":5126,"count":322,"type":"VEC3","max":[0.00575000048,0.0012,0.00575000048],"min":[-0.00575000048,0,-0.00575000048]},{"bufferView":38,"componentType":5126,"count":322,"type":"VEC3","byteOffset":12},{"bufferView":38,"componentType":5126,"count":322,"type":"VEC4","byteOffset":24},{"bufferView":39,"componentType":5126,"count":322,"type":"VEC2"},{"bufferView":9,"componentType":5125,"count":948,"type":"SCALAR"},{"bufferView":9,"componentType":5125,"count":192,"type":"SCALAR","byteOffset":3792},{"bufferView":40,"componentType":5126,"count":5020,"type":"VEC3","max":[0.0296000019,0.00450000027,0.0045880964],"min":[0.0100000016,-0.00450000027,-0.0045880964]},{"bufferView":40,"componentType":5126,"count":5020,"type":"VEC3","byteOffset":12},{"bufferView":40,"componentType":5126,"count":5020,"type":"VEC4","byteOffset":24},{"bufferView":41,"componentType":5126,"count":5020,"type":"VEC2"},{"bufferView":10,"componentType":5125,"count":17676,"type":"SCALAR"},{"bufferView":42,"componentType":5126,"count":588,"type":"VEC3","max":[0.00925,-0.000249999575,0.0048],"min":[0.000749999657,-0.00875,-0.0033]},{"bufferView":42,"componentType":5126,"count":588,"type":"VEC3","byteOffset":12},{"bufferView":42,"componentType":5126,"count":588,"type":"VEC4","byteOffset":24},{"bufferView":43,"componentType":5126,"count":588,"type":"VEC2"},{"bufferView":11,"componentType":5125,"count":2040,"type":"SCALAR"},{"bufferView":44,"componentType":5126,"count":187,"type":"VEC3","max":[0.0100000007,0.00450000027,0.0045880964],"min":[0,-0.00450000027,-0.0045880964]},{"bufferView":44,"componentType":5126,"count":187,"type":"VEC3","byteOffset":12},{"bufferView":44,"componentType":5126,"count":187,"type":"VEC4","byteOffset":24},{"bufferView":45,"componentType":5126,"count":187,"type":"VEC2"},{"bufferView":12,"componentType":5125,"count":612,"type":"SCALAR"},{"bufferView":46,"componentType":5126,"count":8314,"type":"VEC3","max":[0,0.00399981067,0.004],"min":[-0.0150000006,-0.00399981067,-0.004]},{"bufferView":46,"componentType":5126,"count":8314,"type":"VEC3","byteOffset":12},{"bufferView":46,"componentType":5126,"count":8314,"type":"VEC4","byteOffset":24},{"bufferView":47,"componentType":5126,"count":8314,"type":"VEC2"},{"bufferView":13,"componentType":5125,"count":28728,"type":"SCALAR"},{"bufferView":48,"componentType":5126,"count":322,"type":"VEC3","max":[0.0005,0.00275000022,0.00275000022],"min":[0,-0.00275000022,-0.00275000022]},{"bufferView":48,"componentType":5126,"count":322,"type":"VEC3","byteOffset":12},{"bufferView":48,"componentType":5126,"count":322,"type":"VEC4","byteOffset":24},{"bufferView":49,"componentType":5126,"count":322,"type":"VEC2"},{"bufferView":14,"componentType":5125,"count":756,"type":"SCALAR"},{"bufferView":14,"componentType":5125,"count":384,"type":"SCALAR","byteOffset":3024},{"bufferView":50,"componentType":5126,"count":7025,"type":"VEC3","max":[0.00425402867,0.00425402867,-0.00199999986],"min":[-0.00425402867,-0.00425402867,-0.0062]},{"bufferView":50,"componentType":5126,"count":7025,"type":"VEC3","byteOffset":12},{"bufferView":50,"componentType":5126,"count":7025,"type":"VEC4","byteOffset":24},{"bufferView":51,"componentType":5126,"count":7025,"type":"VEC2"},{"bufferView":15,"componentType":5125,"count":25152,"type":"SCALAR"},{"bufferView":52,"componentType":5126,"count":715,"type":"VEC3","max":[0.00421268167,0.00421268167,0],"min":[-0.00421268167,-0.00421268167,-0.002]},{"bufferView":52,"componentType":5126,"count":715,"type":"VEC3","byteOffset":12},{"bufferView":52,"componentType":5126,"count":715,"type":"VEC4","byteOffset":24},{"bufferView":53,"componentType":5126,"count":715,"type":"VEC2"},{"bufferView":16,"componentType":5125,"count":3456,"type":"SCALAR"},{"bufferView":54,"componentType":5126,"count":337,"type":"VEC3","max":[0.00220000022,0.002,0.0062],"min":[-0.0012,-0.002,0]},{"bufferView":54,"componentType":5126,"count":337,"type":"VEC3","byteOffset":12},{"bufferView":54,"componentType":5126,"count":337,"type":"VEC4","byteOffset":24},{"bufferView":55,"componentType":5126,"count":337,"type":"VEC2"},{"bufferView":17,"componentType":5125,"count":1146,"type":"SCALAR"},{"bufferView":56,"componentType":5126,"count":848,"type":"VEC3","max":[0.00125000009,0.0017992761,-0.01095392],"min":[-0.00125000009,-0.0109998826,-0.0166181643]},{"bufferView":56,"componentType":5126,"count":848,"type":"VEC3","byteOffset":12},{"bufferView":56,"componentType":5126,"count":848,"type":"VEC4","byteOffset":24},{"bufferView":57,"componentType":5126,"count":848,"type":"VEC2"},{"bufferView":18,"componentType":5125,"count":2844,"type":"SCALAR"},{"bufferView":58,"componentType":5126,"count":1302,"type":"VEC3","max":[0.00554337632,0.00235,0.004380951],"min":[0.00100000016,-0.00235,-0.004380951]},{"bufferView":58,"componentType":5126,"count":1302,"type":"VEC3","byteOffset":12},{"bufferView":58,"componentType":5126,"count":1302,"type":"VEC4","byteOffset":24},{"bufferView":59,"componentType":5126,"count":1302,"type":"VEC2"},{"bufferView":19,"componentType":5125,"count":4392,"type":"SCALAR"}],"materials":[{"name":"Asset Green","pbrMetallicRoughness":{"baseColorFactor":[0.248803228,0.8301887,0.0352438428,0.270588249],"metallicFactor":0,"roughnessFactor":0.5},"alphaMode":"BLEND"},{"name":"Component Yellow","pbrMetallicRoughness":{"baseColorFactor":[0.9716981,0.88066715,0.06875214,0.65882355],"metallicFactor":0,"roughnessFactor":0.5},"alphaMode":"BLEND"},{"name":"Default-Material","pbrMetallicRoughness":{"metallicFactor":0}}],"meshes":[{"name":"Body1","primitives":[{"attributes":{"POSITION":0,"NORMAL":1,"TANGENT":2,"TEXCOORD_0":3},"indices":4,"material":0}]},{"name":"Body1","primitives":[{"attributes":{"POSITION":5,"NORMAL":6,"TANGENT":7,"TEXCOORD_0":8},"indices":9,"material":0}]},{"name":"Body1","primitives":[{"attributes":{"POSITION":10,"NORMAL":11,"TANGENT":12,"TEXCOORD_0":13},"indices":14,"material":0}]},{"name":"Body1","primitives":[{"attributes":{"POSITION":15,"NORMAL":16,"TANGENT":17,"TEXCOORD_0":18},"indices":19,"material":0}]},{"name":"Body1","primitives":[{"attributes":{"POSITION":20,"NORMAL":21,"TANGENT":22,"TEXCOORD_0":23},"indices":24,"material":0}]},{"name":"Body1","primitives":[{"attributes":{"POSITION":25,"NORMAL":26,"TANGENT":27,"TEXCOORD_0":28},"indices":29,"material":0}]},{"name":"Body1","primitives":[{"attributes":{"POSITION":30,"NORMAL":31,"TANGENT":32,"TEXCOORD_0":33},"indices":34,"material":1}]},{"name":"Body1","primitives":[{"attributes":{"POSITION":35,"NORMAL":36,"TANGENT":37,"TEXCOORD_0":38},"indices":39,"material":0}]},{"name":"Body1","primitives":[{"attributes":{"POSITION":40,"NORMAL":41,"TANGENT":42,"TEXCOORD_0":43},"indices":44,"material":0}]},{"name":"Body1","primitives":[{"attributes":{"POSITION":45,"NORMAL":46,"TANGENT":47,"TEXCOORD_0":48},"indices":49,"material":1},{"attributes":{"POSITION":45,"NORMAL":46,"TANGENT":47,"TEXCOORD_0":48},"indices":50,"material":2}]},{"name":"Body1","primitives":[{"attributes":{"POSITION":51,"NORMAL":52,"TANGENT":53,"TEXCOORD_0":54},"indices":55,"material":0}]},{"name":"Body1","primitives":[{"attributes":{"POSITION":56,"NORMAL":57,"TANGENT":58,"TEXCOORD_0":59},"indices":60,"material":0}]},{"name":"Body1","primitives":[{"attributes":{"POSITION":61,"NORMAL":62,"TANGENT":63,"TEXCOORD_0":64},"indices":65,"material":0}]},{"name":"Body1","primitives":[{"attributes":{"POSITION":66,"NORMAL":67,"TANGENT":68,"TEXCOORD_0":69},"indices":70,"material":0}]},{"name":"Body1","primitives":[{"attributes":{"POSITION":71,"NORMAL":72,"TANGENT":73,"TEXCOORD_0":74},"indices":75,"material":0},{"attributes":{"POSITION":71,"NORMAL":72,"TANGENT":73,"TEXCOORD_0":74},"indices":76,"material":2}]},{"name":"Body1","primitives":[{"attributes":{"POSITION":77,"NORMAL":78,"TANGENT":79,"TEXCOORD_0":80},"indices":81,"material":0}]},{"name":"Body1","primitives":[{"attributes":{"POSITION":82,"NORMAL":83,"TANGENT":84,"TEXCOORD_0":85},"indices":86,"material":0}]},{"name":"Body1","primitives":[{"attributes":{"POSITION":87,"NORMAL":88,"TANGENT":89,"TEXCOORD_0":90},"indices":91,"material":0}]},{"name":"Body1","primitives":[{"attributes":{"POSITION":92,"NORMAL":93,"TANGENT":94,"TEXCOORD_0":95},"indices":96,"material":0}]},{"name":"Body1","primitives":[{"attributes":{"POSITION":97,"NORMAL":98,"TANGENT":99,"TEXCOORD_0":100},"indices":101,"material":0}]}],"scene":0,"scenes":[{"name":"Component-1-Base:1","nodes":[49]}]}