{"asset":{"version":"2.0","generator":"Unity 2022.3.21f1 glTFast 6.2.0"},"nodes":[{"name":"Plugins"},{"name":"Base","mesh":0},{"name":"Base","children":[1],"scale":[30,30,30]},{"name":"Foot01","mesh":1},{"name":"Foot1","children":[3],"scale":[30,30,30]},{"name":"Foot02","mesh":2},{"name":"Foot2","children":[5],"scale":[30,30,30]},{"name":"Foot03","mesh":3},{"name":"Foot3","children":[7],"scale":[30,30,30]},{"name":"Foot04","mesh":4},{"name":"Foot4","children":[9],"scale":[30,30,30]},{"name":"SmallerBase","mesh":5},{"name":"Smaller base","children":[11],"scale":[30,30,30]},{"name":"Visuals","children":[2,4,6,8,10,12]},{"name":"Base"},{"name":"Base","children":[14],"scale":[30,30,30]},{"name":"Foot01"},{"name":"Foot1","children":[16],"scale":[30,30,30]},{"name":"Foot002"},{"name":"Foot2","children":[18],"scale":[30,30,30]},{"name":"Foot03"},{"name":"Foot3","children":[20],"scale":[30,30,30]},{"name":"Foot04"},{"name":"Foot4","children":[22],"scale":[30,30,30]},{"name":"Smaller base"},{"name":"Smaller base","children":[24],"scale":[30,30,30]},{"name":"Collisions","children":[15,17,19,21,23,25]},{"name":"[Interactable] 001","mesh":6},{"name":"001","children":[27],"translation":[0,0.2464,0],"scale":[30,30,30]},{"name":"Structure001","mesh":7},{"name":"Structure1","children":[29],"translation":[-0.009,0.214,-1.16415322E-10],"scale":[30.0000019,30,30.0000019]},{"name":"Visuals","children":[28,30]},{"name":"[Interactable] 001"},{"name":"001","children":[32],"translation":[0,0.2464,0],"scale":[30,30,30]},{"name":"Collisions","children":[33]},{"name":"[Interactable] 002","mesh":8},{"name":"unnamed","children":[35],"translation":[-0.018,0.838,-0.093],"rotation":[0.7071068,0,0,0.7071068],"scale":[30.0000038,30.0000114,30.0000114]},{"name":"Component 2","mesh":9},{"name":"unnamed","children":[37],"translation":[-0.024900049,0.8472001,-0.0310000256],"rotation":[-0.637355566,-0.3062318,0.3062318,0.637355566],"scale":[30.0000076,30.00001,30.0000076]},{"name":"Visuals","children":[36,38]},{"name":"Collisions"},{"name":"Cube","mesh":10,"rotation":[1.77635684E-15,3.46347662E-09,-8.535339E-17,1]},{"name":"Cube","children":[41],"translation":[0.766,1.818,0.134],"rotation":[0,-1,0,0],"scale":[29.9999962,30,29.9999962]},{"name":"DiskUnderCube","mesh":11},{"name":"DiskUnderCube","children":[43],"translation":[0.773,1.818,0.112000011],"rotation":[0,-1,0,0],"scale":[30.0000076,30,30.0000076]},{"name":"Structure2","mesh":12},{"name":"Structure2","children":[45],"translation":[0.7673,1.818,0.133],"rotation":[0,-1,0,0],"scale":[30.0000076,30,30.0000076]},{"name":"Visuals","children":[42,44,46],"rotation":[8.214632E-09,2.8647829E-08,-5.29395529E-23,1]},{"name":"Collisions","rotation":[8.214632E-09,2.8647829E-08,-5.29395529E-23,1]},{"name":"Structure3","mesh":13,"rotation":[0,-3.944304E-31,2.220446E-16,1]},{"name":"Structure3","children":[49],"translation":[-0.132900015,1.82,0.134],"rotation":[-8.881783E-16,1.972152E-31,-2.22044631E-16,1],"scale":[30,30,30]},{"name":"Structure4","mesh":14,"rotation":[0,-3.944304E-31,2.220446E-16,1]},{"name":"Structure4","children":[51],"translation":[-0.126,1.825,0.131999969],"rotation":[-8.881783E-16,1.972152E-31,-2.22044631E-16,1],"scale":[30,30,30]},{"name":"Visuals","children":[50,52],"translation":[3.4406475E-17,-2.44815074E-16,-1.49011612E-08],"rotation":[-8.881783E-16,0,-2.54443835E-23,1]},{"name":"Collisions","translation":[3.4406475E-17,-2.44815074E-16,-1.49011612E-08],"rotation":[-8.881783E-16,0,-2.54443835E-23,1]},{"name":"Inter","mesh":15},{"name":"Inter","children":[55],"translation":[-0.463,1.6954,0.133],"rotation":[-0.5,-0.5,-0.5,0.5],"scale":[30.0000038,30.0000038,30.0000076]},{"name":"Structure5","mesh":16},{"name":"Structure5","children":[57],"translation":[-0.472,1.7025001,0.129000023],"rotation":[-0.7071068,0,0,0.7071068],"scale":[30.0000038,30.0000114,30.0000114]},{"name":"Structure6","mesh":17},{"name":"Structure6","children":[59],"translation":[-0.472,1.713,0.129],"rotation":[-0.7071068,0,0,0.7071068],"scale":[30.0000038,30.0000114,30.0000114]},{"name":"Visuals","children":[56,58,60],"rotation":[-8.881783E-16,1.972152E-31,-2.22044631E-16,1]},{"name":"Collisions","rotation":[-8.881783E-16,1.972152E-31,-2.22044631E-16,1]},{"name":"ClampHolder","mesh":18,"rotation":[0,0,-0.7071068,0.7071068]},{"name":"ClampHolder","children":[63],"translation":[-0.481,1.56,0.127],"rotation":[0,-3.94430359E-31,2.22044552E-16,1],"scale":[30.0000038,30.0000038,30.0000057]},{"name":"Clamp1","mesh":19,"rotation":[0,-3.94430359E-31,2.22044578E-16,1]},{"name":"Clamp1","children":[65],"translation":[-0.4811,1.557,0.57],"rotation":[-0.173648253,0,0,0.9848078],"scale":[30,30,30]},{"name":"Clamp2","mesh":19,"rotation":[0,-3.94430359E-31,2.22044578E-16,1]},{"name":"Clamp2","children":[67],"translation":[-0.481,1.557,-0.316],"rotation":[0,-0.9848078,-0.173648253,0],"scale":[30,30,30]},{"name":"Visuals","children":[64,66,68],"rotation":[0,-3.944304E-31,2.220446E-16,1]},{"name":"Collisions","rotation":[0,-3.944304E-31,2.220446E-16,1]},{"name":"link","children":[69,70],"rotation":[-8.881783E-16,1.972152E-31,-2.22044631E-16,1]},{"name":"Component-6-Jaw-5:1","children":[61,62,71],"translation":[3.4406475E-17,-2.44815074E-16,-1.49011612E-08],"rotation":[-8.881783E-16,0,-2.54443835E-23,1]},{"name":"Component-5-Jaw-4:1","children":[53,54,72],"translation":[-2.98023224E-08,1.22407537E-16,7.450579E-09],"rotation":[-8.881783E-16,1.15448973E-09,-2.315283E-16,1]},{"name":"Component-4-Jaw-3:1","children":[47,48,73],"rotation":[8.214632E-09,2.8647829E-08,0,1]},{"name":"Component-3-Jaw-2:1","children":[39,40,74],"translation":[-0.438,-0.114,0]},{"name":"Component-2-Jaw-1:1","children":[31,34,75],"rotation":[0,0.382683426,0,0.923879564]},{"name":"Component-1-Base:1","children":[13,26,76]},{"name":"Robot","children":[0,77]}],"buffers":[{"uri":"robotic arm-v4.bin","byteLength":2018472}],"bufferViews":[{"buffer":0,"byteLength":3480},{"buffer":0,"byteLength":720,"byteOffset":3480},{"buffer":0,"byteLength":720,"byteOffset":4200},{"buffer":0,"byteLength":720,"byteOffset":4920},{"buffer":0,"byteLength":720,"byteOffset":5640},{"buffer":0,"byteLength":3408,"byteOffset":6360},{"buffer":0,"byteLength":4920,"byteOffset":9768},{"buffer":0,"byteLength":47304,"byteOffset":14688},{"buffer":0,"byteLength":2280,"byteOffset":61992},{"buffer":0,"byteLength":22020,"byteOffset":64272},{"buffer":0,"byteLength":1224,"byteOffset":86292},{"buffer":0,"byteLength":4080,"byteOffset":87516},{"buffer":0,"byteLength":35352,"byteOffset":91596},{"buffer":0,"byteLength":2280,"byteOffset":126948},{"buffer":0,"byteLength":57456,"byteOffset":129228},{"buffer":0,"byteLength":2292,"byteOffset":186684},{"buffer":0,"byteLength":6912,"byteOffset":188976},{"buffer":0,"byteLength":50304,"byteOffset":195888},{"buffer":0,"byteLength":8784,"byteOffset":246192},{"buffer":0,"byteLength":5688,"byteOffset":254976},{"buffer":0,"byteLength":23664,"byteOffset":260664,"byteStride":48},{"buffer":0,"byteLength":6432,"byteOffset":284328,"byteStride":48},{"buffer":0,"byteLength":6432,"byteOffset":290760,"byteStride":48},{"buffer":0,"byteLength":6432,"byteOffset":297192,"byteStride":48},{"buffer":0,"byteLength":6432,"byteOffset":303624,"byteStride":48},{"buffer":0,"byteLength":23136,"byteOffset":310056,"byteStride":48},{"buffer":0,"byteLength":32400,"byteOffset":333192,"byteStride":48},{"buffer":0,"byteLength":330528,"byteOffset":365592,"byteStride":48},{"buffer":0,"byteLength":15456,"byteOffset":696120,"byteStride":48},{"buffer":0,"byteLength":123312,"byteOffset":711576,"byteStride":48},{"buffer":0,"byteLength":8976,"byteOffset":834888,"byteStride":48},{"buffer":0,"byteLength":28224,"byteOffset":843864,"byteStride":48},{"buffer":0,"byteLength":240960,"byteOffset":872088,"byteStride":48},{"buffer":0,"byteLength":15456,"byteOffset":1113048,"byteStride":48},{"buffer":0,"byteLength":399072,"byteOffset":1128504,"byteStride":48},{"buffer":0,"byteLength":16176,"byteOffset":1527576,"byteStride":48},{"buffer":0,"byteLength":34320,"byteOffset":1543752,"byteStride":48},{"buffer":0,"byteLength":337200,"byteOffset":1578072,"byteStride":48},{"buffer":0,"byteLength":62496,"byteOffset":1915272,"byteStride":48},{"buffer":0,"byteLength":40704,"byteOffset":1977768,"byteStride":48}],"accessors":[{"bufferView":20,"componentType":5126,"count":493,"type":"VEC3","max":[0.0150000006,0.0075000003,0.0150000006],"min":[-0.0150000006,0,-0.0150000006]},{"bufferView":20,"componentType":5126,"count":493,"type":"VEC3","byteOffset":12},{"bufferView":20,"componentType":5126,"count":493,"type":"VEC4","byteOffset":24},{"bufferView":20,"componentType":5126,"count":493,"type":"VEC2","byteOffset":40},{"bufferView":0,"componentType":5123,"count":1740,"type":"SCALAR"},{"bufferView":21,"componentType":5126,"count":134,"type":"VEC3","max":[-0.0145236887,0.0065,0.00375000015],"min":[-0.0195236877,0,-0.00375000015]},{"bufferView":21,"componentType":5126,"count":134,"type":"VEC3","byteOffset":12},{"bufferView":21,"componentType":5126,"count":134,"type":"VEC4","byteOffset":24},{"bufferView":21,"componentType":5126,"count":134,"type":"VEC2","byteOffset":40},{"bufferView":1,"componentType":5123,"count":360,"type":"SCALAR"},{"bufferView":22,"componentType":5126,"count":134,"type":"VEC3","max":[0.00375000015,0.0065,0.0195236877],"min":[-0.00375000015,0,0.0145236887]},{"bufferView":22,"componentType":5126,"count":134,"type":"VEC3","byteOffset":12},{"bufferView":22,"componentType":5126,"count":134,"type":"VEC4","byteOffset":24},{"bufferView":22,"componentType":5126,"count":134,"type":"VEC2","byteOffset":40},{"bufferView":2,"componentType":5123,"count":360,"type":"SCALAR"},{"bufferView":23,"componentType":5126,"count":134,"type":"VEC3","max":[0.0195236877,0.0065,0.00375000015],"min":[0.0145236887,0,-0.00375000015]},{"bufferView":23,"componentType":5126,"count":134,"type":"VEC3","byteOffset":12},{"bufferView":23,"componentType":5126,"count":134,"type":"VEC4","byteOffset":24},{"bufferView":23,"componentType":5126,"count":134,"type":"VEC2","byteOffset":40},{"bufferView":3,"componentType":5123,"count":360,"type":"SCALAR"},{"bufferView":24,"componentType":5126,"count":134,"type":"VEC3","max":[0.00375000015,0.0065,-0.0145236887],"min":[-0.00375000015,0,-0.0195236877]},{"bufferView":24,"componentType":5126,"count":134,"type":"VEC3","byteOffset":12},{"bufferView":24,"componentType":5126,"count":134,"type":"VEC4","byteOffset":24},{"bufferView":24,"componentType":5126,"count":134,"type":"VEC2","byteOffset":40},{"bufferView":4,"componentType":5123,"count":360,"type":"SCALAR"},{"bufferView":25,"componentType":5126,"count":482,"type":"VEC3","max":[0.0110000009,0.010400001,0.0110000009],"min":[-0.0110000009,0.00750000076,-0.0110000009]},{"bufferView":25,"componentType":5126,"count":482,"type":"VEC3","byteOffset":12},{"bufferView":25,"componentType":5126,"count":482,"type":"VEC4","byteOffset":24},{"bufferView":25,"componentType":5126,"count":482,"type":"VEC2","byteOffset":40},{"bufferView":5,"componentType":5123,"count":1704,"type":"SCALAR"},{"bufferView":26,"componentType":5126,"count":675,"type":"VEC3","max":[0.009000001,0.00370000023,0.009000001],"min":[-0.009000001,0,-0.009000001]},{"bufferView":26,"componentType":5126,"count":675,"type":"VEC3","byteOffset":12},{"bufferView":26,"componentType":5126,"count":675,"type":"VEC4","byteOffset":24},{"bufferView":26,"componentType":5126,"count":675,"type":"VEC2","byteOffset":40},{"bufferView":6,"componentType":5123,"count":2460,"type":"SCALAR"},{"bufferView":27,"componentType":5126,"count":6886,"type":"VEC3","max":[0.007750001,0.0228498112,0.00565],"min":[-0.0218449738,0.00370000117,-0.00199999986]},{"bufferView":27,"componentType":5126,"count":6886,"type":"VEC3","byteOffset":12},{"bufferView":27,"componentType":5126,"count":6886,"type":"VEC4","byteOffset":24},{"bufferView":27,"componentType":5126,"count":6886,"type":"VEC2","byteOffset":40},{"bufferView":7,"componentType":5123,"count":23652,"type":"SCALAR"},{"bufferView":28,"componentType":5126,"count":322,"type":"VEC3","max":[0.00575000048,0.0012,0.00575000048],"min":[-0.00575000048,0,-0.00575000048]},{"bufferView":28,"componentType":5126,"count":322,"type":"VEC3","byteOffset":12},{"bufferView":28,"componentType":5126,"count":322,"type":"VEC4","byteOffset":24},{"bufferView":28,"componentType":5126,"count":322,"type":"VEC2","byteOffset":40},{"bufferView":8,"componentType":5123,"count":948,"type":"SCALAR"},{"bufferView":8,"componentType":5123,"count":192,"type":"SCALAR","byteOffset":1896},{"bufferView":29,"componentType":5126,"count":2569,"type":"VEC3","max":[0.0385000035,0.0047,0.0045],"min":[-0.00450000167,-0.00199999986,-0.006244488]},{"bufferView":29,"componentType":5126,"count":2569,"type":"VEC3","byteOffset":12},{"bufferView":29,"componentType":5126,"count":2569,"type":"VEC4","byteOffset":24},{"bufferView":29,"componentType":5126,"count":2569,"type":"VEC2","byteOffset":40},{"bufferView":9,"componentType":5123,"count":11010,"type":"SCALAR"},{"bufferView":30,"componentType":5126,"count":187,"type":"VEC3","max":[0.0100000007,0.00450000027,0.0045880964],"min":[0,-0.00450000027,-0.0045880964]},{"bufferView":30,"componentType":5126,"count":187,"type":"VEC3","byteOffset":12},{"bufferView":30,"componentType":5126,"count":187,"type":"VEC4","byteOffset":24},{"bufferView":30,"componentType":5126,"count":187,"type":"VEC2","byteOffset":40},{"bufferView":10,"componentType":5123,"count":612,"type":"SCALAR"},{"bufferView":31,"componentType":5126,"count":588,"type":"VEC3","max":[0.00925,-0.000249999575,0.0048],"min":[0.000749999657,-0.00875,-0.0033]},{"bufferView":31,"componentType":5126,"count":588,"type":"VEC3","byteOffset":12},{"bufferView":31,"componentType":5126,"count":588,"type":"VEC4","byteOffset":24},{"bufferView":31,"componentType":5126,"count":588,"type":"VEC2","byteOffset":40},{"bufferView":11,"componentType":5123,"count":2040,"type":"SCALAR"},{"bufferView":32,"componentType":5126,"count":5020,"type":"VEC3","max":[0.0296000019,0.00450000027,0.0045880964],"min":[0.0100000016,-0.00450000027,-0.0045880964]},{"bufferView":32,"componentType":5126,"count":5020,"type":"VEC3","byteOffset":12},{"bufferView":32,"componentType":5126,"count":5020,"type":"VEC4","byteOffset":24},{"bufferView":32,"componentType":5126,"count":5020,"type":"VEC2","byteOffset":40},{"bufferView":12,"componentType":5123,"count":17676,"type":"SCALAR"},{"bufferView":33,"componentType":5126,"count":322,"type":"VEC3","max":[0.0005,0.00275000022,0.00275000022],"min":[0,-0.00275000022,-0.00275000022]},{"bufferView":33,"componentType":5126,"count":322,"type":"VEC3","byteOffset":12},{"bufferView":33,"componentType":5126,"count":322,"type":"VEC4","byteOffset":24},{"bufferView":33,"componentType":5126,"count":322,"type":"VEC2","byteOffset":40},{"bufferView":13,"componentType":5123,"count":756,"type":"SCALAR"},{"bufferView":13,"componentType":5123,"count":384,"type":"SCALAR","byteOffset":1512},{"bufferView":34,"componentType":5126,"count":8314,"type":"VEC3","max":[0,0.00399981067,0.004],"min":[-0.0150000006,-0.00399981067,-0.004]},{"bufferView":34,"componentType":5126,"count":8314,"type":"VEC3","byteOffset":12},{"bufferView":34,"componentType":5126,"count":8314,"type":"VEC4","byteOffset":24},{"bufferView":34,"componentType":5126,"count":8314,"type":"VEC2","byteOffset":40},{"bufferView":14,"componentType":5123,"count":28728,"type":"SCALAR"},{"bufferView":35,"componentType":5126,"count":337,"type":"VEC3","max":[0.00220000022,0.002,0.0062],"min":[-0.0012,-0.002,0]},{"bufferView":35,"componentType":5126,"count":337,"type":"VEC3","byteOffset":12},{"bufferView":35,"componentType":5126,"count":337,"type":"VEC4","byteOffset":24},{"bufferView":35,"componentType":5126,"count":337,"type":"VEC2","byteOffset":40},{"bufferView":15,"componentType":5123,"count":1146,"type":"SCALAR"},{"bufferView":36,"componentType":5126,"count":715,"type":"VEC3","max":[0.00421268167,0.00421268167,0],"min":[-0.00421268167,-0.00421268167,-0.002]},{"bufferView":36,"componentType":5126,"count":715,"type":"VEC3","byteOffset":12},{"bufferView":36,"componentType":5126,"count":715,"type":"VEC4","byteOffset":24},{"bufferView":36,"componentType":5126,"count":715,"type":"VEC2","byteOffset":40},{"bufferView":16,"componentType":5123,"count":3456,"type":"SCALAR"},{"bufferView":37,"componentType":5126,"count":7025,"type":"VEC3","max":[0.00425402867,0.00425402867,-0.00199999986],"min":[-0.00425402867,-0.00425402867,-0.0062]},{"bufferView":37,"componentType":5126,"count":7025,"type":"VEC3","byteOffset":12},{"bufferView":37,"componentType":5126,"count":7025,"type":"VEC4","byteOffset":24},{"bufferView":37,"componentType":5126,"count":7025,"type":"VEC2","byteOffset":40},{"bufferView":17,"componentType":5123,"count":25152,"type":"SCALAR"},{"bufferView":38,"componentType":5126,"count":1302,"type":"VEC3","max":[0.00554337632,0.00235,0.004380951],"min":[0.00100000016,-0.00235,-0.004380951]},{"bufferView":38,"componentType":5126,"count":1302,"type":"VEC3","byteOffset":12},{"bufferView":38,"componentType":5126,"count":1302,"type":"VEC4","byteOffset":24},{"bufferView":38,"componentType":5126,"count":1302,"type":"VEC2","byteOffset":40},{"bufferView":18,"componentType":5123,"count":4392,"type":"SCALAR"},{"bufferView":39,"componentType":5126,"count":848,"type":"VEC3","max":[0.00125000009,0.0017992761,-0.01095392],"min":[-0.00125000009,-0.0109998826,-0.0166181643]},{"bufferView":39,"componentType":5126,"count":848,"type":"VEC3","byteOffset":12},{"bufferView":39,"componentType":5126,"count":848,"type":"VEC4","byteOffset":24},{"bufferView":39,"componentType":5126,"count":848,"type":"VEC2","byteOffset":40},{"bufferView":19,"componentType":5123,"count":2844,"type":"SCALAR"}],"materials":[{"name":"Brass - Polished","pbrMetallicRoughness":{"baseColorFactor":[0.979022443,0.904365361,0.726243436,1],"metallicFactor":0,"roughnessFactor":0.5527864}},{"name":"Aluminum - Anodized Glossy (Grey)","pbrMetallicRoughness":{"baseColorFactor":[0.759380937,0.759380937,0.759380937,1],"metallicFactor":0,"roughnessFactor":0.5527864}},{"name":"Paint - Enamel Glossy (Yellow)","pbrMetallicRoughness":{"baseColorFactor":[0.9592555,0.842525,0.4061997,1],"metallicFactor":0,"roughnessFactor":0.5527864}},{"name":"Default-Material","pbrMetallicRoughness":{"metallicFactor":0,"roughnessFactor":0.5}},{"name":"Paint - Enamel Glossy (Black)","pbrMetallicRoughness":{"baseColorFactor":[0.345868856,0.345868856,0.345868856,1],"metallicFactor":0,"roughnessFactor":0.5527864}}],"meshes":[{"name":"Body1","primitives":[{"attributes":{"POSITION":0,"NORMAL":1,"TANGENT":2,"TEXCOORD_0":3},"indices":4,"material":0}]},{"name":"Body1","primitives":[{"attributes":{"POSITION":5,"NORMAL":6,"TANGENT":7,"TEXCOORD_0":8},"indices":9,"material":1}]},{"name":"Body1","primitives":[{"attributes":{"POSITION":10,"NORMAL":11,"TANGENT":12,"TEXCOORD_0":13},"indices":14,"material":1}]},{"name":"Body1","primitives":[{"attributes":{"POSITION":15,"NORMAL":16,"TANGENT":17,"TEXCOORD_0":18},"indices":19,"material":1}]},{"name":"Body1","primitives":[{"attributes":{"POSITION":20,"NORMAL":21,"TANGENT":22,"TEXCOORD_0":23},"indices":24,"material":1}]},{"name":"Body1","primitives":[{"attributes":{"POSITION":25,"NORMAL":26,"TANGENT":27,"TEXCOORD_0":28},"indices":29,"material":0}]},{"name":"Body1","primitives":[{"attributes":{"POSITION":30,"NORMAL":31,"TANGENT":32,"TEXCOORD_0":33},"indices":34,"material":1}]},{"name":"Body1","primitives":[{"attributes":{"POSITION":35,"NORMAL":36,"TANGENT":37,"TEXCOORD_0":38},"indices":39,"material":0}]},{"name":"Body1","primitives":[{"attributes":{"POSITION":40,"NORMAL":41,"TANGENT":42,"TEXCOORD_0":43},"indices":44,"material":2},{"attributes":{"POSITION":40,"NORMAL":41,"TANGENT":42,"TEXCOORD_0":43},"indices":45,"material":3}]},{"name":"Body1","primitives":[{"attributes":{"POSITION":46,"NORMAL":47,"TANGENT":48,"TEXCOORD_0":49},"indices":50,"material":1}]},{"name":"Body1","primitives":[{"attributes":{"POSITION":51,"NORMAL":52,"TANGENT":53,"TEXCOORD_0":54},"indices":55,"material":0}]},{"name":"Body1","primitives":[{"attributes":{"POSITION":56,"NORMAL":57,"TANGENT":58,"TEXCOORD_0":59},"indices":60,"material":0}]},{"name":"Body1","primitives":[{"attributes":{"POSITION":61,"NORMAL":62,"TANGENT":63,"TEXCOORD_0":64},"indices":65,"material":0}]},{"name":"Body1","primitives":[{"attributes":{"POSITION":66,"NORMAL":67,"TANGENT":68,"TEXCOORD_0":69},"indices":70,"material":4},{"attributes":{"POSITION":66,"NORMAL":67,"TANGENT":68,"TEXCOORD_0":69},"indices":71,"material":3}]},{"name":"Body1","primitives":[{"attributes":{"POSITION":72,"NORMAL":73,"TANGENT":74,"TEXCOORD_0":75},"indices":76,"material":1}]},{"name":"Body1","primitives":[{"attributes":{"POSITION":77,"NORMAL":78,"TANGENT":79,"TEXCOORD_0":80},"indices":81,"material":2}]},{"name":"Body1","primitives":[{"attributes":{"POSITION":82,"NORMAL":83,"TANGENT":84,"TEXCOORD_0":85},"indices":86,"material":0}]},{"name":"Body1","primitives":[{"attributes":{"POSITION":87,"NORMAL":88,"TANGENT":89,"TEXCOORD_0":90},"indices":91,"material":0}]},{"name":"Body1","primitives":[{"attributes":{"POSITION":92,"NORMAL":93,"TANGENT":94,"TEXCOORD_0":95},"indices":96,"material":1}]},{"name":"Body1","primitives":[{"attributes":{"POSITION":97,"NORMAL":98,"TANGENT":99,"TEXCOORD_0":100},"indices":101,"material":1}]}],"scene":0,"scenes":[{"name":"Robot","nodes":[78]}]}