{"asset":{"version":"2.0","generator":"Unity 2022.3.21f1 glTFast 6.2.0"},"nodes":[{"name":"Body1","mesh":0},{"name":"Base","children":[0],"scale":[30,30,30]},{"name":"Body1","mesh":1},{"name":"Foot1","children":[2],"scale":[30,30,30]},{"name":"Body1","mesh":2},{"name":"Foot2","children":[4],"scale":[30,30,30]},{"name":"Body1","mesh":3},{"name":"Foot3","children":[6],"scale":[30,30,30]},{"name":"Body1","mesh":4},{"name":"Foot4","children":[8],"scale":[30,30,30]},{"name":"Body1","mesh":5},{"name":"Smaller base","children":[10],"scale":[30,30,30]},{"name":"Visuals","children":[1,3,5,7,9,11]},{"name":"Collisions"},{"name":"[Interactable] 001","mesh":6},{"name":"001","children":[14],"translation":[0,0.2464,0],"scale":[30,30,30]},{"name":"Body1","mesh":7,"translation":[-0.009,0.214,0],"scale":[30,30,30]},{"name":"unnamed","children":[16]},{"name":"Visuals","children":[15,17]},{"name":"Collisions"},{"name":"[Interactable] 002","mesh":8,"rotation":[0.7071068,-1.4901163E-08,1.4901163E-08,0.7071068]},{"name":"unnamed","children":[20],"translation":[-0.018,0.838,-0.093],"scale":[30.0000038,30.0000114,30.0000114]},{"name":"Body1","mesh":9,"rotation":[-0.7048535,-0.0564043447,0.05640436,0.7048538]},{"name":"unnamed","children":[22],"translation":[-0.0240000486,0.8490001,-0.0310000032],"scale":[30.0000057,30.0000076,30.0000076]},{"name":"Visuals","children":[21,23]},{"name":"Collisions"},{"name":"Component-3-Jaw-2:1","children":[24,25],"rotation":[0,0,0.275637329,0.961261749]},{"name":"Component-2-Jaw-1:1","children":[18,19,26],"rotation":[0,0.382683426,0,0.923879564]},{"name":"Component-1-Base:1","children":[12,13,27]}],"buffers":[{"uri":"robotic arm-v3.bin","byteLength":660516}],"bufferViews":[{"buffer":0,"byteLength":3480},{"buffer":0,"byteLength":720,"byteOffset":3480},{"buffer":0,"byteLength":720,"byteOffset":4200},{"buffer":0,"byteLength":720,"byteOffset":4920},{"buffer":0,"byteLength":720,"byteOffset":5640},{"buffer":0,"byteLength":3408,"byteOffset":6360},{"buffer":0,"byteLength":4920,"byteOffset":9768},{"buffer":0,"byteLength":47304,"byteOffset":14688},{"buffer":0,"byteLength":2280,"byteOffset":61992},{"buffer":0,"byteLength":22020,"byteOffset":64272},{"buffer":0,"byteLength":6432,"byteOffset":86292,"byteStride":48},{"buffer":0,"byteLength":23664,"byteOffset":92724,"byteStride":48},{"buffer":0,"byteLength":6432,"byteOffset":116388,"byteStride":48},{"buffer":0,"byteLength":6432,"byteOffset":122820,"byteStride":48},{"buffer":0,"byteLength":6432,"byteOffset":129252,"byteStride":48},{"buffer":0,"byteLength":23136,"byteOffset":135684,"byteStride":48},{"buffer":0,"byteLength":32400,"byteOffset":158820,"byteStride":48},{"buffer":0,"byteLength":330528,"byteOffset":191220,"byteStride":48},{"buffer":0,"byteLength":15456,"byteOffset":521748,"byteStride":48},{"buffer":0,"byteLength":123312,"byteOffset":537204,"byteStride":48}],"accessors":[{"bufferView":11,"componentType":5126,"count":493,"type":"VEC3","max":[0.0150000006,0.0075000003,0.0150000006],"min":[-0.0150000006,0,-0.0150000006]},{"bufferView":11,"componentType":5126,"count":493,"type":"VEC3","byteOffset":12},{"bufferView":11,"componentType":5126,"count":493,"type":"VEC4","byteOffset":24},{"bufferView":11,"componentType":5126,"count":493,"type":"VEC2","byteOffset":40},{"bufferView":0,"componentType":5123,"count":1740,"type":"SCALAR"},{"bufferView":12,"componentType":5126,"count":134,"type":"VEC3","max":[-0.0145236887,0.0065,0.00375000015],"min":[-0.0195236877,0,-0.00375000015]},{"bufferView":12,"componentType":5126,"count":134,"type":"VEC3","byteOffset":12},{"bufferView":12,"componentType":5126,"count":134,"type":"VEC4","byteOffset":24},{"bufferView":12,"componentType":5126,"count":134,"type":"VEC2","byteOffset":40},{"bufferView":1,"componentType":5123,"count":360,"type":"SCALAR"},{"bufferView":13,"componentType":5126,"count":134,"type":"VEC3","max":[0.00375000015,0.0065,0.0195236877],"min":[-0.00375000015,0,0.0145236887]},{"bufferView":13,"componentType":5126,"count":134,"type":"VEC3","byteOffset":12},{"bufferView":13,"componentType":5126,"count":134,"type":"VEC4","byteOffset":24},{"bufferView":13,"componentType":5126,"count":134,"type":"VEC2","byteOffset":40},{"bufferView":2,"componentType":5123,"count":360,"type":"SCALAR"},{"bufferView":10,"componentType":5126,"count":134,"type":"VEC3","max":[0.0195236877,0.0065,0.00375000015],"min":[0.0145236887,0,-0.00375000015]},{"bufferView":10,"componentType":5126,"count":134,"type":"VEC3","byteOffset":12},{"bufferView":10,"componentType":5126,"count":134,"type":"VEC4","byteOffset":24},{"bufferView":10,"componentType":5126,"count":134,"type":"VEC2","byteOffset":40},{"bufferView":3,"componentType":5123,"count":360,"type":"SCALAR"},{"bufferView":14,"componentType":5126,"count":134,"type":"VEC3","max":[0.00375000015,0.0065,-0.0145236887],"min":[-0.00375000015,0,-0.0195236877]},{"bufferView":14,"componentType":5126,"count":134,"type":"VEC3","byteOffset":12},{"bufferView":14,"componentType":5126,"count":134,"type":"VEC4","byteOffset":24},{"bufferView":14,"componentType":5126,"count":134,"type":"VEC2","byteOffset":40},{"bufferView":4,"componentType":5123,"count":360,"type":"SCALAR"},{"bufferView":15,"componentType":5126,"count":482,"type":"VEC3","max":[0.0110000009,0.010400001,0.0110000009],"min":[-0.0110000009,0.00750000076,-0.0110000009]},{"bufferView":15,"componentType":5126,"count":482,"type":"VEC3","byteOffset":12},{"bufferView":15,"componentType":5126,"count":482,"type":"VEC4","byteOffset":24},{"bufferView":15,"componentType":5126,"count":482,"type":"VEC2","byteOffset":40},{"bufferView":5,"componentType":5123,"count":1704,"type":"SCALAR"},{"bufferView":16,"componentType":5126,"count":675,"type":"VEC3","max":[0.009000001,0.00370000023,0.009000001],"min":[-0.009000001,0,-0.009000001]},{"bufferView":16,"componentType":5126,"count":675,"type":"VEC3","byteOffset":12},{"bufferView":16,"componentType":5126,"count":675,"type":"VEC4","byteOffset":24},{"bufferView":16,"componentType":5126,"count":675,"type":"VEC2","byteOffset":40},{"bufferView":6,"componentType":5123,"count":2460,"type":"SCALAR"},{"bufferView":17,"componentType":5126,"count":6886,"type":"VEC3","max":[0.007750001,0.0228498112,0.00565],"min":[-0.0218449738,0.00370000117,-0.00199999986]},{"bufferView":17,"componentType":5126,"count":6886,"type":"VEC3","byteOffset":12},{"bufferView":17,"componentType":5126,"count":6886,"type":"VEC4","byteOffset":24},{"bufferView":17,"componentType":5126,"count":6886,"type":"VEC2","byteOffset":40},{"bufferView":7,"componentType":5123,"count":23652,"type":"SCALAR"},{"bufferView":18,"componentType":5126,"count":322,"type":"VEC3","max":[0.00575000048,0.0012,0.00575000048],"min":[-0.00575000048,0,-0.00575000048]},{"bufferView":18,"componentType":5126,"count":322,"type":"VEC3","byteOffset":12},{"bufferView":18,"componentType":5126,"count":322,"type":"VEC4","byteOffset":24},{"bufferView":18,"componentType":5126,"count":322,"type":"VEC2","byteOffset":40},{"bufferView":8,"componentType":5123,"count":948,"type":"SCALAR"},{"bufferView":8,"componentType":5123,"count":192,"type":"SCALAR","byteOffset":1896},{"bufferView":19,"componentType":5126,"count":2569,"type":"VEC3","max":[0.0385000035,0.0047,0.0045],"min":[-0.00450000167,-0.00199999986,-0.006244488]},{"bufferView":19,"componentType":5126,"count":2569,"type":"VEC3","byteOffset":12},{"bufferView":19,"componentType":5126,"count":2569,"type":"VEC4","byteOffset":24},{"bufferView":19,"componentType":5126,"count":2569,"type":"VEC2","byteOffset":40},{"bufferView":9,"componentType":5123,"count":11010,"type":"SCALAR"}],"materials":[{"name":"Brass - Polished","pbrMetallicRoughness":{"baseColorFactor":[0.979022443,0.904365361,0.726243436,1],"metallicFactor":0,"roughnessFactor":0.5527864}},{"name":"Aluminum - Anodized Glossy (Grey)","pbrMetallicRoughness":{"baseColorFactor":[0.759380937,0.759380937,0.759380937,1],"metallicFactor":0,"roughnessFactor":0.5527864}},{"name":"Paint - Enamel Glossy (Yellow)","pbrMetallicRoughness":{"baseColorFactor":[0.9592555,0.842525,0.4061997,1],"metallicFactor":0,"roughnessFactor":0.5527864}},{"name":"Default-Material","pbrMetallicRoughness":{"metallicFactor":0,"roughnessFactor":0.5}}],"meshes":[{"name":"Body1","primitives":[{"attributes":{"POSITION":0,"NORMAL":1,"TANGENT":2,"TEXCOORD_0":3},"indices":4,"material":0}]},{"name":"Body1","primitives":[{"attributes":{"POSITION":5,"NORMAL":6,"TANGENT":7,"TEXCOORD_0":8},"indices":9,"material":1}]},{"name":"Body1","primitives":[{"attributes":{"POSITION":10,"NORMAL":11,"TANGENT":12,"TEXCOORD_0":13},"indices":14,"material":1}]},{"name":"Body1","primitives":[{"attributes":{"POSITION":15,"NORMAL":16,"TANGENT":17,"TEXCOORD_0":18},"indices":19,"material":1}]},{"name":"Body1","primitives":[{"attributes":{"POSITION":20,"NORMAL":21,"TANGENT":22,"TEXCOORD_0":23},"indices":24,"material":1}]},{"name":"Body1","primitives":[{"attributes":{"POSITION":25,"NORMAL":26,"TANGENT":27,"TEXCOORD_0":28},"indices":29,"material":0}]},{"name":"Body1","primitives":[{"attributes":{"POSITION":30,"NORMAL":31,"TANGENT":32,"TEXCOORD_0":33},"indices":34,"material":1}]},{"name":"Body1","primitives":[{"attributes":{"POSITION":35,"NORMAL":36,"TANGENT":37,"TEXCOORD_0":38},"indices":39,"material":0}]},{"name":"Body1","primitives":[{"attributes":{"POSITION":40,"NORMAL":41,"TANGENT":42,"TEXCOORD_0":43},"indices":44,"material":2},{"attributes":{"POSITION":40,"NORMAL":41,"TANGENT":42,"TEXCOORD_0":43},"indices":45,"material":3}]},{"name":"Body1","primitives":[{"attributes":{"POSITION":46,"NORMAL":47,"TANGENT":48,"TEXCOORD_0":49},"indices":50,"material":1}]}],"scene":0,"scenes":[{"name":"Component-1-Base:1","nodes":[28]}]}